# xmcd
#
# Track frame offsets: 
#        150
#        12136
#        21115
#        32360
#        44630
#        56019
#        68979
#        80703
#        93757
#        107972
#        119647
#        131926
#        143816
#        154951
#        165243
#        177530
#        188787
#        202023
#
# Disc length: 2881 seconds
#
# Revision: 2
# Processed by: cddbd v1.5.2PL0 Copyright (c) Steve Scherf et al.
# Submitted via: ExactAudioCopyFreeDBPlugin 1.0
#
DISCID=020b3f12
DTITLE=Various Artist - Kings of Western Swing Volume 1
DYEAR=2004
DGENRE=Western Swing
TTITLE0=Spade Cooley - Crazy 'Cause I Love You
TTITLE1=Bob Wills and His Texas Playboys - Keep a Knockin' but You Can't
TTITLE1=Come in
TTITLE2=The Sunshine Boys - He's a Rounder
TTITLE3=Bob Skyles and His Skyrockets - Jive and Smile
TTITLE4=Shelly Lee Alley and The Alley Cats - Try it Once Again
TTITLE5=Johnny Lee Wills - Milk Cow Blues
TTITLE6=Hank Penny and His Radio Cowboys - Peach Tree Shuffle
TTITLE7=Bob Wills and His Texas Playboys - What's the Matter at the Mill
TTITLE8=Milton Brown and His Musical Brownies - Sweet Jennie Lee
TTITLE9=Swift Jewel Cowboys - Little Willie (From New Orleans)
TTITLE10=Jimmy Revard and The Oklahoma Playboys - It's a Long Way to Tip
TTITLE10=perary
TTITLE11=The Sunshine Boys - Gonna Get Tight
TTITLE12=Modern Mountaineers - Everybody's Truckin'
TTITLE13=Smokey Wood and The Wood Chips - Keep On Truckin'
TTITLE14=Milton Brown and His Musical Brownies - Right or Wrong
TTITLE15=Leon 'Pappy' Selph and His Blue Ridge Playboys - Florene
TTITLE16=The Rice Brothers Gang - Is it True What They Say about Dixie
TTITLE17=Cliff Bruner and His Gang - Jessie
EXTD=YEAR: 2004
EXTT0=
EXTT1=
EXTT2=
EXTT3=
EXTT4=
EXTT5=
EXTT6=
EXTT7=
EXTT8=
EXTT9=
EXTT10=
EXTT11=
EXTT12=
EXTT13=
EXTT14=
EXTT15=
EXTT16=
EXTT17=
PLAYORDER=
